<svg width="20" height="20" viewBox="0 0 20 20" fill="none" xmlns="http://www.w3.org/2000/svg">
<path d="M8.49999 14.4585L17.9164 5.04138L17.9164 5.04137C18.0712 4.88659 18.2811 4.79963 18.5 4.79963C18.7189 4.79963 18.9288 4.88659 19.0836 5.04137C19.2384 5.19616 19.3253 5.40609 19.3253 5.62498C19.3253 5.84388 19.2384 6.05381 19.0836 6.20859L9.08367 16.2085L9.08359 16.2086L8.49999 14.4585ZM8.49999 14.4585L4.7086 10.6664L4.70859 10.6664C4.55381 10.5116 4.34388 10.4246 4.12498 10.4246C3.90609 10.4246 3.69615 10.5116 3.54137 10.6664C3.38659 10.8212 3.29963 11.0311 3.29963 11.25C3.29963 11.4689 3.38659 11.6788 3.54137 11.8336L7.91629 16.2085L7.91637 16.2086L8.49999 14.4585Z" fill="#1B873F" stroke="#1B873F" stroke-width="0.4"/>
</svg>
