<?xml version="1.0" encoding="iso-8859-1"?>
<!-- Generator: Adobe Illustrator 18.1.1, SVG Export Plug-In . SVG Version: 6.00 Build 0)  -->
<svg version="1.1" id="Capa_1" xmlns="http://www.w3.org/2000/svg" xmlns:xlink="http://www.w3.org/1999/xlink" x="0px" y="0px"
	 viewBox="0 0 52.001 52.001" style="enable-background:new 0 0 52.001 52.001;" xml:space="preserve">
<g>
	<g>
		<path style="fill:#030104;" d="M47.743,41.758L33.955,26.001l13.788-15.758c2.343-2.344,2.343-6.143,0-8.486
			c-2.345-2.343-6.144-2.342-8.486,0.001L26,16.91L12.743,1.758C10.4-0.584,6.602-0.585,4.257,1.757
			c-2.343,2.344-2.343,6.143,0,8.486l13.788,15.758L4.257,41.758c-2.343,2.343-2.343,6.142-0.001,8.485
			c2.344,2.344,6.143,2.344,8.487,0L26,35.091l13.257,15.152c2.345,2.344,6.144,2.344,8.487,0
			C50.086,47.9,50.086,44.101,47.743,41.758z"/>
	</g>
</g>
<g>
</g>
<g>
</g>
<g>
</g>
<g>
</g>
<g>
</g>
<g>
</g>
<g>
</g>
<g>
</g>
<g>
</g>
<g>
</g>
<g>
</g>
<g>
</g>
<g>
</g>
<g>
</g>
<g>
</g>
</svg>
