<svg width="49" height="49" viewBox="0 0 49 49" fill="none" xmlns="http://www.w3.org/2000/svg">
<path id="Vector" d="M48.8879 36.5503C48.46 39.8024 46.8629 42.7876 44.3949 44.9482C41.9269 47.1088 38.7568 48.2971 35.4766 48.2912C16.4204 48.2912 0.916281 32.7871 0.916281 13.7309C0.910401 10.4508 2.09874 7.28066 4.25935 4.81265C6.41997 2.34464 9.40509 0.747515 12.6572 0.319574C13.4796 0.21916 14.3124 0.387404 15.0313 0.799191C15.7502 1.21098 16.3166 1.84422 16.646 2.6044L21.7149 13.9205V13.9493C21.9671 14.5312 22.0713 15.1665 22.0181 15.7985C21.9649 16.4304 21.756 17.0394 21.4101 17.5709C21.3669 17.6357 21.3213 17.6957 21.2733 17.7557L16.2764 23.679C18.074 27.3318 21.8949 31.1191 25.5957 32.9215L31.4374 27.951C31.4947 27.9028 31.5548 27.8579 31.6174 27.8166C32.1485 27.4624 32.7595 27.2462 33.3952 27.1875C34.0309 27.1288 34.6712 27.2296 35.2582 27.4806L35.2894 27.495L46.5959 32.5615C47.3574 32.8897 47.9922 33.4557 48.4054 34.1747C48.8185 34.8937 48.9878 35.7271 48.8879 36.5503Z" fill="#372D3B"/>
</svg>
