<svg width="17" height="17" viewBox="0 0 17 17" fill="none" xmlns="http://www.w3.org/2000/svg">
<path id="Vector" d="M16.049 7.98826L12.8928 10.847L13.8383 15.1031C13.8883 15.3256 13.874 15.5584 13.7972 15.7726C13.7204 15.9867 13.5845 16.1726 13.4065 16.307C13.2285 16.4414 13.0162 16.5183 12.7963 16.5282C12.5764 16.538 12.3585 16.4804 12.1699 16.3625L8.59324 14.111L5.02423 16.3625C4.83568 16.4804 4.61782 16.538 4.39789 16.5282C4.17795 16.5183 3.9657 16.4414 3.78767 16.307C3.60964 16.1726 3.47373 15.9867 3.39694 15.7726C3.32014 15.5584 3.30586 15.3256 3.35589 15.1031L4.29993 10.8513L1.14311 7.98826C0.97614 7.83881 0.855405 7.64152 0.796043 7.42113C0.736681 7.20074 0.741335 6.96707 0.80942 6.74942C0.877506 6.53177 1.00599 6.33982 1.17877 6.19766C1.35154 6.05549 1.56092 5.96943 1.78063 5.95027L5.94168 5.57622L7.56593 1.55543C7.65075 1.34445 7.79382 1.16424 7.97712 1.03748C8.16043 0.910717 8.37577 0.843079 8.59604 0.843079C8.81631 0.843079 9.03165 0.910717 9.21496 1.03748C9.39826 1.16424 9.54133 1.34445 9.62615 1.55543L11.2553 5.57622L15.4149 5.95027C15.6347 5.96943 15.844 6.05549 16.0168 6.19766C16.1896 6.33982 16.3181 6.53177 16.3862 6.74942C16.4542 6.96707 16.4589 7.20074 16.3995 7.42113C16.3402 7.64152 16.2194 7.83881 16.0525 7.98826H16.049Z" fill="#FBF8FC"/>
</svg>
