<svg width="25" height="24" viewBox="0 0 25 24" fill="none" xmlns="http://www.w3.org/2000/svg">
<path d="M12.9438 3V6C12.9438 6.19891 12.8648 6.38968 12.7242 6.53033C12.5835 6.67098 12.3928 6.75 12.1938 6.75C11.9949 6.75 11.8042 6.67098 11.6635 6.53033C11.5229 6.38968 11.4438 6.19891 11.4438 6V3C11.4438 2.80109 11.5229 2.61032 11.6635 2.46967C11.8042 2.32902 11.9949 2.25 12.1938 2.25C12.3928 2.25 12.5835 2.32902 12.7242 2.46967C12.8648 2.61032 12.9438 2.80109 12.9438 3ZM21.1938 11.25H18.1938C17.9949 11.25 17.8042 11.329 17.6635 11.4697C17.5229 11.6103 17.4438 11.8011 17.4438 12C17.4438 12.1989 17.5229 12.3897 17.6635 12.5303C17.8042 12.671 17.9949 12.75 18.1938 12.75H21.1938C21.3928 12.75 21.5835 12.671 21.7242 12.5303C21.8648 12.3897 21.9438 12.1989 21.9438 12C21.9438 11.8011 21.8648 11.6103 21.7242 11.4697C21.5835 11.329 21.3928 11.25 21.1938 11.25ZM16.9667 15.7125C16.8249 15.5778 16.6361 15.5038 16.4405 15.5063C16.2449 15.5088 16.0581 15.5876 15.9198 15.7259C15.7814 15.8642 15.7026 16.0511 15.7001 16.2466C15.6976 16.4422 15.7716 16.631 15.9063 16.7728L18.027 18.8944C18.1677 19.0351 18.3586 19.1142 18.5576 19.1142C18.7566 19.1142 18.9475 19.0351 19.0882 18.8944C19.229 18.7536 19.308 18.5628 19.308 18.3638C19.308 18.1647 19.229 17.9739 19.0882 17.8331L16.9667 15.7125ZM12.1938 17.25C11.9949 17.25 11.8042 17.329 11.6635 17.4697C11.5229 17.6103 11.4438 17.8011 11.4438 18V21C11.4438 21.1989 11.5229 21.3897 11.6635 21.5303C11.8042 21.671 11.9949 21.75 12.1938 21.75C12.3928 21.75 12.5835 21.671 12.7242 21.5303C12.8648 21.3897 12.9438 21.1989 12.9438 21V18C12.9438 17.8011 12.8648 17.6103 12.7242 17.4697C12.5835 17.329 12.3928 17.25 12.1938 17.25ZM7.42103 15.7125L5.29947 17.8331C5.15874 17.9739 5.07968 18.1647 5.07968 18.3638C5.07968 18.5628 5.15874 18.7536 5.29947 18.8944C5.4402 19.0351 5.63107 19.1142 5.8301 19.1142C6.02912 19.1142 6.21999 19.0351 6.36072 18.8944L8.48135 16.7728C8.61606 16.631 8.69006 16.4422 8.68755 16.2466C8.68505 16.0511 8.60625 15.8642 8.46794 15.7259C8.32964 15.5876 8.14279 15.5088 7.94722 15.5063C7.75164 15.5038 7.56283 15.5778 7.42103 15.7125ZM6.94385 12C6.94385 11.8011 6.86483 11.6103 6.72418 11.4697C6.58353 11.329 6.39276 11.25 6.19385 11.25H3.19385C2.99494 11.25 2.80417 11.329 2.66352 11.4697C2.52287 11.6103 2.44385 11.8011 2.44385 12C2.44385 12.1989 2.52287 12.3897 2.66352 12.5303C2.80417 12.671 2.99494 12.75 3.19385 12.75H6.19385C6.39276 12.75 6.58353 12.671 6.72418 12.5303C6.86483 12.3897 6.94385 12.1989 6.94385 12ZM6.36072 5.10562C6.21999 4.96489 6.02912 4.88583 5.8301 4.88583C5.63107 4.88583 5.4402 4.96489 5.29947 5.10562C5.15874 5.24636 5.07968 5.43723 5.07968 5.63625C5.07968 5.83527 5.15874 6.02614 5.29947 6.16687L7.42103 8.2875C7.56283 8.42221 7.75164 8.49621 7.94722 8.4937C8.14279 8.4912 8.32964 8.4124 8.46794 8.2741C8.60625 8.1358 8.68505 7.94894 8.68755 7.75337C8.69006 7.5578 8.61606 7.36898 8.48135 7.22719L6.36072 5.10562Z" fill="#F9FAFB"/>
</svg>
