<svg width="25" height="24" viewBox="0 0 25 24" fill="none" xmlns="http://www.w3.org/2000/svg">
<path d="M23.0041 12.75L13.6938 3.43969C13.555 3.2998 13.3898 3.18889 13.2078 3.11341C13.0258 3.03792 12.8305 2.99938 12.6335 3.00001H3.94379C3.74488 3.00001 3.55412 3.07903 3.41346 3.21968C3.27281 3.36033 3.19379 3.5511 3.19379 3.75001V12.4397C3.19316 12.6368 3.23171 12.832 3.30719 13.014C3.38268 13.196 3.49359 13.3612 3.63348 13.5L12.9438 22.8103C13.0831 22.9496 13.2485 23.0602 13.4305 23.1356C13.6125 23.211 13.8076 23.2498 14.0046 23.2498C14.2016 23.2498 14.3967 23.211 14.5787 23.1356C14.7607 23.0602 14.9261 22.9496 15.0654 22.8103L23.0041 14.8716C23.1434 14.7323 23.254 14.5669 23.3294 14.3849C23.4048 14.2029 23.4436 14.0078 23.4436 13.8108C23.4436 13.6138 23.4048 13.4187 23.3294 13.2367C23.254 13.0547 23.1434 12.8893 23.0041 12.75ZM14.0041 21.75L4.69379 12.4397V4.50001H12.6335L21.9438 13.8103L14.0041 21.75ZM9.19379 7.87501C9.19379 8.09751 9.12781 8.31502 9.0042 8.50002C8.88058 8.68503 8.70488 8.82922 8.49931 8.91437C8.29375 8.99952 8.06755 9.0218 7.84932 8.97839C7.63109 8.93498 7.43063 8.82784 7.2733 8.6705C7.11596 8.51317 7.00882 8.31271 6.96541 8.09448C6.922 7.87626 6.94428 7.65006 7.02943 7.44449C7.11458 7.23892 7.25877 7.06322 7.44378 6.9396C7.62878 6.81599 7.84629 6.75001 8.06879 6.75001C8.36716 6.75001 8.65331 6.86853 8.86429 7.07951C9.07527 7.29049 9.19379 7.57664 9.19379 7.87501Z" fill="#A855F7"/>
</svg>
